<svg id="Capa_1" enable-background="new 0 0 503.264 503.264" height="512" viewBox="0 0 503.264 503.264" width="512" xmlns="http://www.w3.org/2000/svg"><g><path d="m448.377 256c0 117.913-73.832 200.702-191.745 200.702-17.219 0-25.931-3.811-41.97-7.66-93.791-22.506-168.668-92.348-168.668-193.042 0-80.015 36.156-149.75 101.297-186.31 16.835-9.448 35.08-16.681 54.341-21.303 16.039-3.849 42.633 2.868 59.852 2.868 117.912 0 186.893 86.832 186.893 204.745z" fill="#e3e0e4"/><path d="m402.072 407.5c-38.6 38.32-91.75 62-150.44 62-117.91 0-213.5-95.59-213.5-213.5 0-82.41 46.69-153.91 115.06-189.5-38.94 38.68-63.06 92.28-63.06 151.5 0 117.91 95.59 213.5 213.5 213.5 35.51 0 68.99-8.67 98.44-24z" fill="#d4cfd5"/><path d="m465.132 256c0 61.122-25.687 116.246-66.854 155.167-38.248 36.16-69.284 38.897-126.072 38.897-17.22 0-54.534 17.396-70.574 13.546 93.79-22.51 163.5-106.92 163.5-207.61s-69.71-185.1-163.5-207.61c16.04-3.85 32.78-5.89 50-5.89 117.91 0 213.5 95.59 213.5 213.5z" fill="#3a67c1"/><path d="m402.062 407.51c-51.263 51.759-129.717 73.602-200.42 56.1 27.09-6.5 52.18-18.17 74.15-33.91 9.11 1.19 18.4 1.8 27.84 1.8 35.51 0 68.98-8.67 98.43-23.99z" fill="#30569f"/><g fill="#3a67c1"><path d="m455.818 12.5h-3.686c-.552 0-1-.448-1-1v-3.686c0-4.107-3.165-7.688-7.27-7.811-4.247-.127-7.73 3.278-7.73 7.497v4c0 .552-.448 1-1 1h-3.686c-4.107 0-7.688 3.164-7.811 7.269-.128 4.247 3.277 7.731 7.497 7.731h4c.552 0 1 .448 1 1v3.686c0 4.107 3.165 7.688 7.27 7.811 4.247.127 7.73-3.278 7.73-7.497v-4c0-.552.448-1 1-1h4c4.219 0 7.624-3.483 7.497-7.731-.124-4.105-3.705-7.269-7.811-7.269z"/><path d="m50.818 453.5h-3.686c-.552 0-1-.448-1-1v-3.686c0-4.107-3.164-7.688-7.269-7.811-4.247-.128-7.731 3.278-7.731 7.497v4c0 .552-.448 1-1 1h-3.686c-4.107 0-7.688 3.164-7.811 7.269-.128 4.247 3.278 7.731 7.497 7.731h4c.552 0 1 .448 1 1v3.686c0 4.107 3.164 7.688 7.269 7.811 4.247.128 7.731-3.278 7.731-7.497v-4c0-.552.448-1 1-1h4c4.219 0 7.624-3.483 7.497-7.731-.124-4.105-3.705-7.269-7.811-7.269z"/></g><path d="m469.738 502.711-8.79-17.58c-.097-.194-.254-.35-.447-.447l-17.58-8.79c-.737-.369-.737-1.42 0-1.789l17.58-8.79c.194-.097.35-.254.447-.447l8.79-17.58c.368-.737 1.42-.737 1.789 0l8.79 17.58c.097.194.254.35.447.447l17.58 8.79c.737.369.737 1.42 0 1.789l-17.58 8.79c-.194.097-.35.254-.447.447l-8.79 17.58c-.369.737-1.421.737-1.789 0z" fill="#f3d332"/><path d="m31.738 95.711-8.79-17.58c-.097-.194-.254-.35-.447-.447l-17.58-8.79c-.737-.369-.737-1.42 0-1.789l17.58-8.79c.194-.097.35-.254.447-.447l8.79-17.58c.369-.737 1.42-.737 1.789 0l8.79 17.58c.097.194.254.35.447.447l17.58 8.79c.737.369.737 1.42 0 1.789l-17.58 8.79c-.194.097-.35.254-.447.447l-8.79 17.58c-.369.737-1.421.737-1.789 0z" fill="#f3d332"/><path d="m199.632 225c0 4.15-.665 8.144-1.895 11.882-4.989 15.168-19.268 15.618-36.105 15.618-20.987 0-33.936-7.151-33.936-28.138 0-15.621 5.362-28.402 18.836-34.243 4.628-2.006 9.735-3.119 15.101-3.119 20.986 0 37.999 17.013 37.999 38z" fill="#d4cfd5"/><path d="m197.732 236.88c-4.98 15.17-19.26 26.12-36.1 26.12-20.99 0-38-17.01-38-38 0-15.63 9.43-29.05 22.9-34.88-1.24 3.73-1.9 7.73-1.9 11.88 0 20.99 17.01 38 38 38 5.37 0 10.47-1.11 15.1-3.12z" fill="#c5bec6"/><path d="m377.132 352.5c0 19.88-16.12 36-36 36-6.67 0-12.91-1.81-18.27-4.97 7.487-10.031 4.866-24.564 10.52-35.849 5.123-10.225 18.694-17.1 22.14-28.181 12.72 5.55 21.61 18.24 21.61 33z" fill="#30569f"/><path d="m355.522 319.5c-7.25 23.31-18.39 44.91-32.66 64.03-10.61-6.27-17.73-17.82-17.73-31.03 0-19.88 16.12-36 36-36 5.12 0 9.98 1.07 14.39 3z" fill="#d4cfd5"/><path d="m374.252 366.62c-5.49 12.86-18.25 21.88-33.12 21.88-6.67 0-12.91-1.81-18.27-4.97 5.27-7.06 10.11-14.46 14.49-22.15 1.42 1.16 2.92 2.22 4.51 3.15 5.36 3.16 11.6 4.97 18.27 4.97 5.01 0 9.79-1.02 14.12-2.88z" fill="#26447e"/><path d="m337.352 361.38c-4.38 7.69-9.22 15.09-14.49 22.15-10.61-6.27-17.73-17.82-17.73-31.03 0-14.87 9.02-27.63 21.88-33.12-1.86 4.33-2.88 9.11-2.88 14.12 0 7.84 2.51 15.1 6.77 21.02 1.84 2.56 4.01 4.87 6.45 6.86z" fill="#c5bec6"/><path d="m256.632 132c0 .789-.059 1.564-.173 2.321-1.12 7.459-7.646 10.892-15.417 10.892-8.56 0-12.495-4.562-12.495-13.123 0-7.772 2.805-14.297 10.264-15.417.757-.114 1.532-.173 2.321-.173 8.56 0 15.5 6.94 15.5 15.5z" fill="#d4cfd5"/><circle cx="409.632" cy="203" fill="#30569f" r="14.5"/><path d="m304.132 235c0 1.208-.122 2.388-.356 3.527-1.632 7.974-8.923 11.367-17.379 11.367-9.665 0-14.191-6.548-14.191-16.213 0-8.278 2.673-13.894 10.395-15.714 1.294-.305 2.644-.466 4.031-.466 9.665-.001 17.5 7.834 17.5 17.499z" fill="#d4cfd5"/><path d="m215.132 383c0 1.208-.122 2.388-.356 3.527-1.632 7.974-6.948 10.686-15.405 10.686-9.665 0-15.761-4.548-15.761-14.213 0-8.278 2.269-15.213 9.99-17.034 1.294-.305 2.644-.466 4.031-.466 9.666 0 17.501 7.835 17.501 17.5z" fill="#d4cfd5"/><g fill="#c5bec6"><circle cx="89.632" cy="298" r="14.5"/><path d="m256.452 134.32c-1.11 7.46-7.55 13.18-15.32 13.18-8.56 0-15.5-6.94-15.5-15.5 0-7.77 5.72-14.21 13.18-15.32-.12.76-.18 1.53-.18 2.32 0 8.56 6.94 15.5 15.5 15.5.79 0 1.56-.06 2.32-.18z"/><path d="m303.662 239.03c-1.82 7.72-8.76 13.47-17.03 13.47-9.66 0-17.5-7.84-17.5-17.5 0-8.27 5.75-15.21 13.47-17.03-.31 1.29-.47 2.64-.47 4.03 0 9.66 7.84 17.5 17.5 17.5 1.39 0 2.74-.16 4.03-.47z"/><path d="m214.662 387.03c-1.82 7.72-8.76 13.47-17.03 13.47-9.66 0-17.5-7.84-17.5-17.5 0-8.27 5.75-15.21 13.47-17.03-.31 1.29-.47 2.64-.47 4.03 0 9.66 7.84 17.5 17.5 17.5 1.39 0 2.74-.16 4.03-.47z"/></g><circle cx="359.132" cy="116.5" fill="#30569f" r="7.117"/><circle cx="415.132" cy="302.5" fill="#30569f" r="7.117"/><circle cx="236.132" cy="302.5" fill="#d4cfd5" r="7.117"/><circle cx="148.132" cy="351.5" fill="#d4cfd5" r="7.117"/><circle cx="159.132" cy="130.5" fill="#d4cfd5" r="7.117"/></g></svg>