<?xml version="1.0" encoding="iso-8859-1"?>
<!-- Generator: Adobe Illustrator 19.0.0, SVG Export Plug-In . SVG Version: 6.00 Build 0)  -->
<svg version="1.1" id="Capa_1" xmlns="http://www.w3.org/2000/svg" xmlns:xlink="http://www.w3.org/1999/xlink" x="0px" y="0px"
	 viewBox="0 0 512.005 512.005" style="enable-background:new 0 0 512.005 512.005;" xml:space="preserve">
<g>
	<g>
		<path d="M455.555,195.12L263.576,3.141c-0.981-0.981-2.176-1.771-3.477-2.325c-2.603-1.088-5.547-1.088-8.149,0
			c-1.323,0.533-2.496,1.323-3.477,2.325L56.451,195.12c-4.16,4.16-4.16,10.923,0,15.083s10.923,4.16,15.083,0L245.336,36.421
			v464.917c0,5.888,4.779,10.667,10.667,10.667s10.667-4.779,10.667-10.667V36.421l173.781,173.781
			c2.091,2.091,4.821,3.136,7.552,3.136c2.731,0,5.461-1.045,7.552-3.115C459.715,206.043,459.715,199.301,455.555,195.12z"/>
	</g>
</g>
<g>
</g>
<g>
</g>
<g>
</g>
<g>
</g>
<g>
</g>
<g>
</g>
<g>
</g>
<g>
</g>
<g>
</g>
<g>
</g>
<g>
</g>
<g>
</g>
<g>
</g>
<g>
</g>
<g>
</g>
</svg>
